HIERARCHY
ROOT joint_Root
{
	OFFSET 0.0 0.0 0.0
	CHANNELS 6 Xposition Yposition Zposition Zrotation Xrotation Yrotation 
	JOINT Hips
	{
		OFFSET 4.5925 91.4895 -427.239
		CHANNELS 6 Xposition Yposition Zposition Zrotation Xrotation Yrotation 
		JOINT Spine
		{
			OFFSET 15.7357 0.0 0.0
			CHANNELS 6 Xposition Yposition Zposition Zrotation Xrotation Yrotation 
			JOINT Chest
			{
				OFFSET 8.98455 -0.406207 0.0
				CHANNELS 6 Xposition Yposition Zposition Zrotation Xrotation Yrotation 
				JOINT Neck
				{
					OFFSET 16.3773 0.0 0.0
					CHANNELS 6 Xposition Yposition Zposition Zrotation Xrotation Yrotation 
					JOINT Head
					{
						OFFSET 6.45672 0.0 0.0
						CHANNELS 6 Xposition Yposition Zposition Zrotation Xrotation Yrotation 
						End Site
						{
							OFFSET 0.0 0.0 0.0
						}
					}
				}
				JOINT Shoulder_L
				{
					OFFSET 12.9942 -0.242716 4.98039
					CHANNELS 6 Xposition Yposition Zposition Zrotation Xrotation Yrotation 
					JOINT UpperArm_L
					{
						OFFSET 5.34809 0.0 0.0
						CHANNELS 6 Xposition Yposition Zposition Zrotation Xrotation Yrotation 
						JOINT LowerArm_L
						{
							OFFSET 24.3286 1.87007e-05 0.0
							CHANNELS 6 Xposition Yposition Zposition Zrotation Xrotation Yrotation 
							JOINT Hand_L
							{
								OFFSET 22.2916 0.0 0.0
								CHANNELS 6 Xposition Yposition Zposition Zrotation Xrotation Yrotation 
								End Site
								{
									OFFSET 0.0 0.0 0.0
								}
							}
						}
					}
				}
				JOINT Shoulder_R
				{
					OFFSET 12.9945 -0.242716 -4.98039
					CHANNELS 6 Xposition Yposition Zposition Zrotation Xrotation Yrotation 
					JOINT UpperArm_R
					{
						OFFSET -5.34813 0.0 0.0
						CHANNELS 6 Xposition Yposition Zposition Zrotation Xrotation Yrotation 
						JOINT LowerArm_R
						{
							OFFSET -24.3289 0.000322201 0.0
							CHANNELS 6 Xposition Yposition Zposition Zrotation Xrotation Yrotation 
							JOINT Hand_R
							{
								OFFSET -22.2915 -0.000108084 0.0
								CHANNELS 6 Xposition Yposition Zposition Zrotation Xrotation Yrotation 
								End Site
								{
									OFFSET 0.0 0.0 0.0
								}
							}
						}
					}
				}
			}
		}
		JOINT UpperLeg_L
		{
			OFFSET -2.19248 -6.46944 0.0
			CHANNELS 6 Xposition Yposition Zposition Zrotation Xrotation Yrotation 
			JOINT LowerLeg_L
			{
				OFFSET 39.0811 0.0 -1.23785e-05
				CHANNELS 6 Xposition Yposition Zposition Zrotation Xrotation Yrotation 
				JOINT Foot_L
				{
					OFFSET 40.9854 0.0 -1.26872e-05
					CHANNELS 6 Xposition Yposition Zposition Zrotation Xrotation Yrotation 
					JOINT Toes_L
					{
						OFFSET 11.7543 0.0 0.0
						CHANNELS 6 Xposition Yposition Zposition Zrotation Xrotation Yrotation 
						End Site
						{
							OFFSET 0.0 0.0 0.0
						}
					}
				}
			}
		}
		JOINT UpperLeg_R
		{
			OFFSET -2.19251 6.46944 0.0
			CHANNELS 6 Xposition Yposition Zposition Zrotation Xrotation Yrotation 
			JOINT LowerLeg_R
			{
				OFFSET -39.0811 -0.00228153 -0.0401928
				CHANNELS 6 Xposition Yposition Zposition Zrotation Xrotation Yrotation 
				JOINT Foot_R
				{
					OFFSET -40.9854 0.0 0.0
					CHANNELS 6 Xposition Yposition Zposition Zrotation Xrotation Yrotation 
					JOINT Toes_R
					{
						OFFSET -11.7543 0.0 0.0
						CHANNELS 6 Xposition Yposition Zposition Zrotation Xrotation Yrotation 
						End Site
						{
							OFFSET 0.0 0.0 0.0
						}
					}
				}
			}
		}
	}
}
MOTION
Frames:	5
Frame Time:	0.0333333
0.000000 0.000000 0.000000 0.000000 0.000000 -0.000000 -8.655450 89.768200 -0.340153 84.993900 -6.600980 13.321800 15.735700 0.000005 -0.000001 70.254900 82.235300 -66.010200 8.984550 -0.406207 -0.000000 7.082500 -5.253430 8.810670 16.377300 -0.000001 -0.000001 27.896100 -10.756100 1.890970 6.456720 -0.000001 -0.000000 16.101200 -11.545000 16.420400 12.994200 -0.242716 4.980390 -87.385500 -6.207970 -67.106900 5.348090 -0.000007 -0.000001 -63.437800 -48.749100 -101.664000 24.328600 0.000019 0.000005 16.310000 13.642800 -51.128100 22.291600 -0.000001 0.000005 19.499100 5.353320 -1.477140 12.994500 -0.242716 -4.980390 87.667400 10.904600 -77.848500 -5.348130 -0.000001 -0.000004 -59.678100 31.096900 -7.739230 -24.328900 0.000322 -0.000009 2.036670 5.968310 -18.890200 -22.291500 -0.000108 -0.000004 14.133800 5.417110 -3.501980 -2.192480 -6.469440 -0.000000 -162.988000 -11.903900 3.247600 39.081100 -0.000007 -0.000012 -0.314296 0.454987 34.636600 40.985400 -0.000006 -0.000013 -4.792130 7.881410 -72.305600 11.754300 -0.000000 0.000003 -0.000060 -0.000661 -16.603200 -2.192510 6.469440 -0.000001 -178.829000 23.698000 -173.284000 -39.081100 -0.002282 -0.040193 -0.193124 0.335408 30.354800 -40.985400 0.000008 0.000006 9.950920 15.461500 -74.356900 -11.754300 -0.000006 -0.000006 -0.000892 -0.013856 -17.136700
0.000000 0.000000 0.000000 0.000000 0.000000 -0.000000 -8.747320 89.760000 -0.253704 85.029400 -6.430000 13.290700 15.735700 0.000005 -0.000001 70.187200 82.280800 -65.925700 8.984550 -0.406207 -0.000000 6.990780 -5.243760 8.839520 16.377300 -0.000001 -0.000001 27.710000 -10.828500 2.066170 6.456720 -0.000001 -0.000000 16.007400 -11.767600 16.820600 12.994200 -0.242716 4.980390 -87.354700 -6.258610 -67.032500 5.348090 -0.000007 -0.000001 -64.034900 -49.110100 -102.088000 24.328600 0.000019 0.000005 15.964200 13.682300 -50.414000 22.291600 -0.000001 0.000005 19.604400 5.352360 -1.448330 12.994500 -0.242716 -4.980390 87.662100 10.915400 -77.832800 -5.348130 -0.000001 -0.000004 -59.497800 31.131200 -7.971850 -24.328900 0.000322 -0.000009 2.061920 5.924440 -19.238300 -22.291500 -0.000108 -0.000004 14.182500 5.420530 -3.616780 -2.192480 -6.469440 -0.000000 -162.994000 -11.777700 3.250770 39.081100 -0.000007 -0.000012 -0.314338 0.456124 34.573300 40.985400 -0.000006 -0.000013 -4.841700 7.959170 -72.306200 11.754300 -0.000000 0.000003 -0.000064 -0.000700 -16.604600 -2.192510 6.469440 -0.000001 -178.852000 23.852900 -173.211000 -39.081100 -0.002282 -0.040193 -0.188829 0.328686 30.308200 -40.985400 0.000008 0.000006 9.990380 15.422200 -74.436300 -11.754300 -0.000006 -0.000006 -0.000855 -0.013322 -17.115000
0.000000 0.000000 0.000000 0.000000 0.000000 -0.000000 -8.840250 89.748700 -0.153777 85.061600 -6.271200 13.207400 15.735700 0.000005 -0.000001 70.139900 82.341400 -65.851300 8.984550 -0.406207 -0.000000 6.872510 -5.219770 8.886790 16.377300 -0.000001 -0.000001 27.565300 -10.913100 2.246860 6.456720 -0.000001 -0.000000 15.903100 -11.966400 17.145600 12.994200 -0.242716 4.980390 -87.341000 -6.273340 -66.974100 5.348090 -0.000007 -0.000001 -64.546300 -49.523000 -102.395000 24.328600 0.000019 0.000005 15.635200 13.671100 -49.818800 22.291600 -0.000001 0.000005 19.609600 5.349930 -1.375380 12.994500 -0.242716 -4.980390 87.663800 10.913900 -77.840100 -5.348130 -0.000001 -0.000004 -59.339100 31.237300 -8.185210 -24.328900 0.000322 -0.000009 2.030020 5.775880 -19.412000 -22.291500 -0.000108 -0.000004 14.223600 5.420960 -3.631500 -2.192480 -6.469440 -0.000000 -163.004000 -11.673900 3.209280 39.081100 -0.000007 -0.000012 -0.315417 0.458562 34.522400 40.985400 -0.000006 -0.000013 -4.901380 8.006750 -72.320700 11.754300 -0.000000 0.000003 -0.000054 -0.000604 -16.601000 -2.192510 6.469440 -0.000001 -178.867000 24.003000 -173.190000 -39.081100 -0.002282 -0.040193 -0.193679 0.337397 30.277600 -40.985400 0.000008 0.000006 10.033500 15.405900 -74.531100 -11.754300 -0.000006 -0.000006 -0.000836 -0.013054 -17.104100
0.000000 0.000000 0.000000 0.000000 0.000000 -0.000000 -8.932730 89.743700 -0.052254 85.110000 -6.072240 13.197900 15.735700 0.000005 -0.000001 70.074000 82.377700 -65.770800 8.984550 -0.406207 -0.000000 6.798550 -5.214810 8.912000 16.377300 -0.000001 -0.000001 27.443100 -10.940200 2.393310 6.456720 -0.000001 -0.000000 15.826300 -12.081300 17.523100 12.994200 -0.242716 4.980390 -87.311800 -6.311040 -66.871200 5.348090 -0.000007 -0.000001 -64.932400 -49.940700 -102.559000 24.328600 0.000019 0.000005 15.494700 13.784300 -49.321700 22.291600 -0.000001 0.000005 19.684500 5.349170 -1.352340 12.994500 -0.242716 -4.980390 87.656100 10.936600 -77.825300 -5.348130 -0.000001 -0.000004 -59.267200 31.234700 -8.330070 -24.328900 0.000322 -0.000009 2.058970 5.875490 -19.360500 -22.291500 -0.000108 -0.000004 14.269200 5.422980 -3.699640 -2.192480 -6.469440 -0.000000 -163.018000 -11.525800 3.270200 39.081100 -0.000007 -0.000012 -0.316406 0.461825 34.416500 40.985400 -0.000006 -0.000013 -4.955630 8.085560 -72.321200 11.754300 -0.000000 0.000003 -0.000058 -0.000640 -16.602400 -2.192510 6.469440 -0.000001 -178.935000 24.192000 -173.071000 -39.081100 -0.002282 -0.040193 -0.192550 0.336351 30.211800 -40.985400 0.000008 0.000006 10.072500 15.392700 -74.612700 -11.754300 -0.000006 -0.000006 -0.000790 -0.012384 -17.076900
0.000000 0.000000 0.000000 0.000000 0.000000 -0.000000 -9.030920 89.727400 0.039081 85.156700 -5.863520 13.151600 15.735700 0.000005 -0.000001 70.050200 82.422300 -65.722100 8.984550 -0.406207 -0.000000 6.712590 -5.194180 8.956680 16.377300 -0.000001 -0.000001 27.298000 -10.972800 2.546600 6.456720 -0.000001 -0.000000 15.784600 -12.157500 17.824100 12.994200 -0.242716 4.980390 -87.308500 -6.309630 -66.841400 5.348090 -0.000007 -0.000001 -65.122500 -50.460300 -102.567000 24.328600 0.000019 0.000005 15.153000 13.703800 -48.821100 22.291600 -0.000001 0.000005 19.717300 5.347800 -1.311230 12.994500 -0.242716 -4.980390 87.637300 11.001700 -77.800400 -5.348130 -0.000001 -0.000004 -59.157200 31.236800 -8.375450 -24.328900 0.000322 -0.000009 2.059370 5.886360 -19.330900 -22.291500 -0.000108 -0.000004 14.277300 5.420740 -3.623910 -2.192480 -6.469440 -0.000000 -163.035000 -11.398200 3.225570 39.081100 -0.000007 -0.000012 -0.320045 0.467651 34.387000 40.985400 -0.000006 -0.000013 -5.015670 8.142390 -72.326200 11.754300 -0.000000 0.000003 -0.000053 -0.000593 -16.600600 -2.192510 6.469440 -0.000001 -178.968000 24.366400 -173.023000 -39.081100 -0.002282 -0.040193 -0.193863 0.338750 30.201200 -40.985400 0.000008 0.000006 10.114700 15.332900 -74.719400 -11.754300 -0.000006 -0.000006 -0.000857 -0.013349 -17.116100
